<svg width="84" height="88" viewBox="0 0 84 88" fill="none" xmlns="http://www.w3.org/2000/svg">
<path fill-rule="evenodd" clip-rule="evenodd" d="M68.3107 59.0118C63.2787 67.0916 54.3056 72.4706 44.0741 72.4706C28.3237 72.4706 15.5556 59.7239 15.5556 44C15.5556 28.2761 28.3237 15.5294 44.0741 15.5294C54.5539 15.5294 63.7135 21.1726 68.6701 29.5812L79.9018 18.3684C71.9033 7.24539 58.8362 0 44.0741 0C19.7326 0 0 19.6995 0 44C0 68.3005 19.7326 88 44.0741 88C53.0848 88 61.464 85.3005 68.4444 80.6674V88H84V43.4824H39.4074V59.0118H68.3107Z" fill="white"/>
</svg>
